<mxfile host="app.diagrams.net" modified="2023-01-17T01:19:22.325Z" agent="5.0 (Windows NT 10.0; Win64; x64) AppleWebKit/537.36 (KHTML, like Gecko) Chrome/108.0.0.0 Safari/537.36" etag="-2nUUYqMfLREir-oq2Qq" version="20.5.3" type="github">
  <diagram id="cwiQhzOlTVwwxseC0goQ" name="Page-1">
    <mxGraphModel dx="1389" dy="583" grid="1" gridSize="10" guides="1" tooltips="1" connect="1" arrows="1" fold="1" page="1" pageScale="1" pageWidth="827" pageHeight="1169" math="0" shadow="0">
      <root>
        <mxCell id="0" />
        <mxCell id="1" parent="0" />
        <mxCell id="AoB9L2WosPhS8uKm3T97-1" value="&lt;span style=&quot;font-weight: normal;&quot;&gt;Online Rezervacija Hotela&lt;br&gt;&lt;/span&gt;" style="swimlane;html=1;childLayout=stackLayout;resizeParent=1;resizeParentMax=0;horizontal=0;startSize=20;horizontalStack=0;whiteSpace=wrap;" vertex="1" parent="1">
          <mxGeometry x="40" y="70" width="1340" height="420" as="geometry" />
        </mxCell>
        <mxCell id="AoB9L2WosPhS8uKm3T97-2" value="&lt;span style=&quot;font-weight: normal;&quot;&gt;Korisnik/Gost&lt;/span&gt;" style="swimlane;html=1;startSize=20;horizontal=0;" vertex="1" parent="AoB9L2WosPhS8uKm3T97-1">
          <mxGeometry x="20" width="1320" height="230" as="geometry" />
        </mxCell>
        <mxCell id="AoB9L2WosPhS8uKm3T97-5" value="" style="points=[[0.145,0.145,0],[0.5,0,0],[0.855,0.145,0],[1,0.5,0],[0.855,0.855,0],[0.5,1,0],[0.145,0.855,0],[0,0.5,0]];shape=mxgraph.bpmn.event;html=1;verticalLabelPosition=bottom;labelBackgroundColor=#ffffff;verticalAlign=top;align=center;perimeter=ellipsePerimeter;outlineConnect=0;aspect=fixed;outline=standard;symbol=general;" vertex="1" parent="AoB9L2WosPhS8uKm3T97-2">
          <mxGeometry x="60" y="95" width="30" height="30" as="geometry" />
        </mxCell>
        <mxCell id="AoB9L2WosPhS8uKm3T97-6" value="" style="edgeStyle=elbowEdgeStyle;fontSize=12;html=1;endArrow=blockThin;endFill=1;rounded=0;" edge="1" parent="AoB9L2WosPhS8uKm3T97-2">
          <mxGeometry width="160" relative="1" as="geometry">
            <mxPoint x="90" y="110" as="sourcePoint" />
            <mxPoint x="120" y="110" as="targetPoint" />
          </mxGeometry>
        </mxCell>
        <mxCell id="AoB9L2WosPhS8uKm3T97-7" value="Poseta sajta" style="points=[[0.25,0,0],[0.5,0,0],[0.75,0,0],[1,0.25,0],[1,0.5,0],[1,0.75,0],[0.75,1,0],[0.5,1,0],[0.25,1,0],[0,0.75,0],[0,0.5,0],[0,0.25,0]];shape=mxgraph.bpmn.task;whiteSpace=wrap;rectStyle=rounded;size=10;html=1;taskMarker=abstract;" vertex="1" parent="AoB9L2WosPhS8uKm3T97-2">
          <mxGeometry x="120" y="95" width="80" height="30" as="geometry" />
        </mxCell>
        <mxCell id="AoB9L2WosPhS8uKm3T97-8" value="" style="edgeStyle=elbowEdgeStyle;fontSize=12;html=1;endArrow=blockThin;endFill=1;rounded=0;" edge="1" parent="AoB9L2WosPhS8uKm3T97-2">
          <mxGeometry width="160" relative="1" as="geometry">
            <mxPoint x="200" y="109.51999999999998" as="sourcePoint" />
            <mxPoint x="240" y="110" as="targetPoint" />
          </mxGeometry>
        </mxCell>
        <mxCell id="AoB9L2WosPhS8uKm3T97-9" value="Logovanje" style="points=[[0.25,0,0],[0.5,0,0],[0.75,0,0],[1,0.25,0],[1,0.5,0],[1,0.75,0],[0.75,1,0],[0.5,1,0],[0.25,1,0],[0,0.75,0],[0,0.5,0],[0,0.25,0]];shape=mxgraph.bpmn.task;whiteSpace=wrap;rectStyle=rounded;size=10;html=1;taskMarker=abstract;" vertex="1" parent="AoB9L2WosPhS8uKm3T97-2">
          <mxGeometry x="240" y="95" width="80" height="30" as="geometry" />
        </mxCell>
        <mxCell id="AoB9L2WosPhS8uKm3T97-10" value="Start" style="text;html=1;strokeColor=none;fillColor=none;align=center;verticalAlign=middle;whiteSpace=wrap;rounded=0;fontSize=10;" vertex="1" parent="AoB9L2WosPhS8uKm3T97-2">
          <mxGeometry x="35" y="70" width="80" height="30" as="geometry" />
        </mxCell>
        <mxCell id="AoB9L2WosPhS8uKm3T97-19" value="Registracija" style="points=[[0.25,0,0],[0.5,0,0],[0.75,0,0],[1,0.25,0],[1,0.5,0],[1,0.75,0],[0.75,1,0],[0.5,1,0],[0.25,1,0],[0,0.75,0],[0,0.5,0],[0,0.25,0]];shape=mxgraph.bpmn.task;whiteSpace=wrap;rectStyle=rounded;size=10;html=1;taskMarker=abstract;" vertex="1" parent="AoB9L2WosPhS8uKm3T97-2">
          <mxGeometry x="350" y="40" width="74" height="30" as="geometry" />
        </mxCell>
        <mxCell id="AoB9L2WosPhS8uKm3T97-20" value="" style="edgeStyle=elbowEdgeStyle;fontSize=12;html=1;endArrow=blockThin;endFill=1;rounded=0;entryX=0.5;entryY=0;entryDx=0;entryDy=0;entryPerimeter=0;exitX=0;exitY=0.5;exitDx=0;exitDy=0;exitPerimeter=0;" edge="1" parent="AoB9L2WosPhS8uKm3T97-2" source="AoB9L2WosPhS8uKm3T97-19" target="AoB9L2WosPhS8uKm3T97-9">
          <mxGeometry width="160" relative="1" as="geometry">
            <mxPoint x="320" y="50" as="sourcePoint" />
            <mxPoint x="314" y="90" as="targetPoint" />
            <Array as="points">
              <mxPoint x="280" y="60" />
              <mxPoint x="310" y="50" />
              <mxPoint x="270" y="50" />
              <mxPoint x="295" y="70" />
            </Array>
          </mxGeometry>
        </mxCell>
        <mxCell id="AoB9L2WosPhS8uKm3T97-21" value="" style="points=[[0.145,0.145,0],[0.5,0,0],[0.855,0.145,0],[1,0.5,0],[0.855,0.855,0],[0.5,1,0],[0.145,0.855,0],[0,0.5,0]];shape=mxgraph.bpmn.event;html=1;verticalLabelPosition=bottom;labelBackgroundColor=#ffffff;verticalAlign=top;align=center;perimeter=ellipsePerimeter;outlineConnect=0;aspect=fixed;outline=end;symbol=message;" vertex="1" parent="AoB9L2WosPhS8uKm3T97-2">
          <mxGeometry x="430" y="95" width="30" height="30" as="geometry" />
        </mxCell>
        <mxCell id="AoB9L2WosPhS8uKm3T97-22" value="" style="points=[[0.145,0.145,0],[0.5,0,0],[0.855,0.145,0],[1,0.5,0],[0.855,0.855,0],[0.5,1,0],[0.145,0.855,0],[0,0.5,0]];shape=mxgraph.bpmn.event;html=1;verticalLabelPosition=bottom;labelBackgroundColor=#ffffff;verticalAlign=top;align=center;perimeter=ellipsePerimeter;outlineConnect=0;aspect=fixed;outline=catching;symbol=message;" vertex="1" parent="AoB9L2WosPhS8uKm3T97-2">
          <mxGeometry x="470" y="95" width="30" height="30" as="geometry" />
        </mxCell>
        <mxCell id="AoB9L2WosPhS8uKm3T97-23" value="Greška" style="text;html=1;strokeColor=none;fillColor=none;align=center;verticalAlign=middle;whiteSpace=wrap;rounded=0;fontSize=10;" vertex="1" parent="AoB9L2WosPhS8uKm3T97-2">
          <mxGeometry x="395" y="125" width="65" height="10" as="geometry" />
        </mxCell>
        <mxCell id="AoB9L2WosPhS8uKm3T97-24" value="Potvrda" style="text;html=1;strokeColor=none;fillColor=none;align=center;verticalAlign=middle;whiteSpace=wrap;rounded=0;fontSize=10;" vertex="1" parent="AoB9L2WosPhS8uKm3T97-2">
          <mxGeometry x="455" y="77.5" width="60" height="10" as="geometry" />
        </mxCell>
        <mxCell id="AoB9L2WosPhS8uKm3T97-25" value="" style="edgeStyle=elbowEdgeStyle;fontSize=12;html=1;endArrow=blockThin;endFill=1;rounded=0;exitX=0;exitY=0.5;exitDx=0;exitDy=0;exitPerimeter=0;" edge="1" parent="AoB9L2WosPhS8uKm3T97-2" source="AoB9L2WosPhS8uKm3T97-21" target="AoB9L2WosPhS8uKm3T97-19">
          <mxGeometry width="160" relative="1" as="geometry">
            <mxPoint x="407" y="107.5" as="sourcePoint" />
            <mxPoint x="410" y="70" as="targetPoint" />
            <Array as="points">
              <mxPoint x="402" y="105" />
            </Array>
          </mxGeometry>
        </mxCell>
        <mxCell id="AoB9L2WosPhS8uKm3T97-27" value="Proveravanje hotela" style="points=[[0.25,0,0],[0.5,0,0],[0.75,0,0],[1,0.25,0],[1,0.5,0],[1,0.75,0],[0.75,1,0],[0.5,1,0],[0.25,1,0],[0,0.75,0],[0,0.5,0],[0,0.25,0]];shape=mxgraph.bpmn.task;whiteSpace=wrap;rectStyle=rounded;size=10;html=1;taskMarker=abstract;fontSize=12;" vertex="1" parent="AoB9L2WosPhS8uKm3T97-2">
          <mxGeometry x="520" y="95" width="80" height="30" as="geometry" />
        </mxCell>
        <mxCell id="AoB9L2WosPhS8uKm3T97-47" value="" style="edgeStyle=elbowEdgeStyle;fontSize=12;html=1;endArrow=blockThin;endFill=1;rounded=0;" edge="1" parent="AoB9L2WosPhS8uKm3T97-2">
          <mxGeometry width="160" relative="1" as="geometry">
            <mxPoint x="500" y="109.52000000000001" as="sourcePoint" />
            <mxPoint x="520" y="110" as="targetPoint" />
          </mxGeometry>
        </mxCell>
        <mxCell id="AoB9L2WosPhS8uKm3T97-29" value="Rezervisanje sobe" style="points=[[0.25,0,0],[0.5,0,0],[0.75,0,0],[1,0.25,0],[1,0.5,0],[1,0.75,0],[0.75,1,0],[0.5,1,0],[0.25,1,0],[0,0.75,0],[0,0.5,0],[0,0.25,0]];shape=mxgraph.bpmn.task;whiteSpace=wrap;rectStyle=rounded;size=10;html=1;taskMarker=abstract;fontSize=12;" vertex="1" parent="AoB9L2WosPhS8uKm3T97-2">
          <mxGeometry x="620" y="95" width="90" height="30" as="geometry" />
        </mxCell>
        <mxCell id="AoB9L2WosPhS8uKm3T97-48" value="" style="edgeStyle=elbowEdgeStyle;fontSize=12;html=1;endArrow=blockThin;endFill=1;rounded=0;" edge="1" parent="AoB9L2WosPhS8uKm3T97-2">
          <mxGeometry width="160" relative="1" as="geometry">
            <mxPoint x="600" y="109.52000000000001" as="sourcePoint" />
            <mxPoint x="620" y="110" as="targetPoint" />
          </mxGeometry>
        </mxCell>
        <mxCell id="AoB9L2WosPhS8uKm3T97-28" value="Plaćanje kreditnom karticom" style="points=[[0.25,0,0],[0.5,0,0],[0.75,0,0],[1,0.25,0],[1,0.5,0],[1,0.75,0],[0.75,1,0],[0.5,1,0],[0.25,1,0],[0,0.75,0],[0,0.5,0],[0,0.25,0]];shape=mxgraph.bpmn.task;whiteSpace=wrap;rectStyle=rounded;size=10;html=1;taskMarker=abstract;fontSize=12;" vertex="1" parent="AoB9L2WosPhS8uKm3T97-2">
          <mxGeometry x="730" y="95" width="110" height="30" as="geometry" />
        </mxCell>
        <mxCell id="AoB9L2WosPhS8uKm3T97-50" value="" style="edgeStyle=elbowEdgeStyle;fontSize=12;html=1;endArrow=blockThin;endFill=1;rounded=0;" edge="1" parent="AoB9L2WosPhS8uKm3T97-2">
          <mxGeometry width="160" relative="1" as="geometry">
            <mxPoint x="710" y="109.52000000000001" as="sourcePoint" />
            <mxPoint x="730" y="110" as="targetPoint" />
          </mxGeometry>
        </mxCell>
        <mxCell id="AoB9L2WosPhS8uKm3T97-56" value="" style="edgeStyle=elbowEdgeStyle;fontSize=12;html=1;endArrow=blockThin;endFill=1;rounded=0;" edge="1" parent="AoB9L2WosPhS8uKm3T97-2">
          <mxGeometry width="160" relative="1" as="geometry">
            <mxPoint x="320" y="110" as="sourcePoint" />
            <mxPoint x="360" y="375" as="targetPoint" />
            <Array as="points" />
          </mxGeometry>
        </mxCell>
        <mxCell id="AoB9L2WosPhS8uKm3T97-64" value="Ne" style="text;html=1;strokeColor=none;fillColor=none;align=center;verticalAlign=middle;whiteSpace=wrap;rounded=0;fontSize=10;" vertex="1" parent="AoB9L2WosPhS8uKm3T97-2">
          <mxGeometry x="415" y="200" width="40" as="geometry" />
        </mxCell>
        <mxCell id="AoB9L2WosPhS8uKm3T97-65" value="Da" style="text;html=1;strokeColor=none;fillColor=none;align=center;verticalAlign=middle;whiteSpace=wrap;rounded=0;fontSize=10;" vertex="1" parent="AoB9L2WosPhS8uKm3T97-2">
          <mxGeometry x="480" y="220" width="40" as="geometry" />
        </mxCell>
        <mxCell id="AoB9L2WosPhS8uKm3T97-72" value="" style="points=[[0.145,0.145,0],[0.5,0,0],[0.855,0.145,0],[1,0.5,0],[0.855,0.855,0],[0.5,1,0],[0.145,0.855,0],[0,0.5,0]];shape=mxgraph.bpmn.event;html=1;verticalLabelPosition=bottom;labelBackgroundColor=#ffffff;verticalAlign=top;align=center;perimeter=ellipsePerimeter;outlineConnect=0;aspect=fixed;outline=end;symbol=message;fontSize=12;" vertex="1" parent="AoB9L2WosPhS8uKm3T97-2">
          <mxGeometry x="850" y="95" width="30" height="30" as="geometry" />
        </mxCell>
        <mxCell id="AoB9L2WosPhS8uKm3T97-73" value="" style="points=[[0.145,0.145,0],[0.5,0,0],[0.855,0.145,0],[1,0.5,0],[0.855,0.855,0],[0.5,1,0],[0.145,0.855,0],[0,0.5,0]];shape=mxgraph.bpmn.event;html=1;verticalLabelPosition=bottom;labelBackgroundColor=#ffffff;verticalAlign=top;align=center;perimeter=ellipsePerimeter;outlineConnect=0;aspect=fixed;outline=throwing;symbol=message;fontSize=12;" vertex="1" parent="AoB9L2WosPhS8uKm3T97-2">
          <mxGeometry x="900" y="95" width="30" height="30" as="geometry" />
        </mxCell>
        <mxCell id="AoB9L2WosPhS8uKm3T97-74" value="Greška u plaćanju" style="text;html=1;strokeColor=none;fillColor=none;align=center;verticalAlign=middle;whiteSpace=wrap;rounded=0;fontSize=10;" vertex="1" parent="AoB9L2WosPhS8uKm3T97-2">
          <mxGeometry x="850" y="67.5" width="60" height="20" as="geometry" />
        </mxCell>
        <mxCell id="AoB9L2WosPhS8uKm3T97-75" value="Potvrditi" style="text;html=1;strokeColor=none;fillColor=none;align=center;verticalAlign=middle;whiteSpace=wrap;rounded=0;fontSize=10;" vertex="1" parent="AoB9L2WosPhS8uKm3T97-2">
          <mxGeometry x="910" y="80" width="50" height="10" as="geometry" />
        </mxCell>
        <mxCell id="AoB9L2WosPhS8uKm3T97-82" value="" style="edgeStyle=elbowEdgeStyle;fontSize=12;html=1;endArrow=blockThin;endFill=1;rounded=0;" edge="1" parent="AoB9L2WosPhS8uKm3T97-2" target="AoB9L2WosPhS8uKm3T97-73">
          <mxGeometry width="160" relative="1" as="geometry">
            <mxPoint x="910" y="270" as="sourcePoint" />
            <mxPoint x="910" y="130" as="targetPoint" />
          </mxGeometry>
        </mxCell>
        <mxCell id="AoB9L2WosPhS8uKm3T97-85" value="" style="edgeStyle=elbowEdgeStyle;fontSize=12;html=1;endArrow=blockThin;endFill=1;rounded=0;" edge="1" parent="AoB9L2WosPhS8uKm3T97-2">
          <mxGeometry width="160" relative="1" as="geometry">
            <mxPoint x="930" y="109.47" as="sourcePoint" />
            <mxPoint x="960" y="109" as="targetPoint" />
          </mxGeometry>
        </mxCell>
        <mxCell id="AoB9L2WosPhS8uKm3T97-86" value="" style="points=[[0.25,0.25,0],[0.5,0,0],[0.75,0.25,0],[1,0.5,0],[0.75,0.75,0],[0.5,1,0],[0.25,0.75,0],[0,0.5,0]];shape=mxgraph.bpmn.gateway2;html=1;verticalLabelPosition=bottom;labelBackgroundColor=#ffffff;verticalAlign=top;align=center;perimeter=rhombusPerimeter;outlineConnect=0;outline=none;symbol=none;gwType=parallel;fontSize=10;" vertex="1" parent="AoB9L2WosPhS8uKm3T97-2">
          <mxGeometry x="960" y="90" width="40" height="40" as="geometry" />
        </mxCell>
        <mxCell id="AoB9L2WosPhS8uKm3T97-88" value="" style="edgeStyle=elbowEdgeStyle;fontSize=12;html=1;endArrow=blockThin;endFill=1;rounded=0;" edge="1" parent="AoB9L2WosPhS8uKm3T97-2">
          <mxGeometry width="160" relative="1" as="geometry">
            <mxPoint x="980" y="90" as="sourcePoint" />
            <mxPoint x="1010" y="52" as="targetPoint" />
            <Array as="points">
              <mxPoint x="980" y="27" />
            </Array>
          </mxGeometry>
        </mxCell>
        <mxCell id="AoB9L2WosPhS8uKm3T97-90" value="" style="edgeStyle=elbowEdgeStyle;fontSize=12;html=1;endArrow=blockThin;endFill=1;rounded=0;" edge="1" parent="AoB9L2WosPhS8uKm3T97-2">
          <mxGeometry width="160" relative="1" as="geometry">
            <mxPoint x="980" y="130" as="sourcePoint" />
            <mxPoint x="1010" y="175" as="targetPoint" />
            <Array as="points">
              <mxPoint x="980" y="155" />
            </Array>
          </mxGeometry>
        </mxCell>
        <mxCell id="AoB9L2WosPhS8uKm3T97-91" value="Potvrda rezervacije" style="points=[[0.25,0,0],[0.5,0,0],[0.75,0,0],[1,0.25,0],[1,0.5,0],[1,0.75,0],[0.75,1,0],[0.5,1,0],[0.25,1,0],[0,0.75,0],[0,0.5,0],[0,0.25,0]];shape=mxgraph.bpmn.task;whiteSpace=wrap;rectStyle=rounded;size=10;html=1;taskMarker=abstract;fontSize=12;" vertex="1" parent="AoB9L2WosPhS8uKm3T97-2">
          <mxGeometry x="1010" y="37.5" width="110" height="30" as="geometry" />
        </mxCell>
        <mxCell id="AoB9L2WosPhS8uKm3T97-92" value="Otkazivanje rezervacije" style="points=[[0.25,0,0],[0.5,0,0],[0.75,0,0],[1,0.25,0],[1,0.5,0],[1,0.75,0],[0.75,1,0],[0.5,1,0],[0.25,1,0],[0,0.75,0],[0,0.5,0],[0,0.25,0]];shape=mxgraph.bpmn.task;whiteSpace=wrap;rectStyle=rounded;size=10;html=1;taskMarker=abstract;fontSize=12;" vertex="1" parent="AoB9L2WosPhS8uKm3T97-2">
          <mxGeometry x="1010" y="160" width="130" height="30" as="geometry" />
        </mxCell>
        <mxCell id="AoB9L2WosPhS8uKm3T97-93" value="" style="edgeStyle=elbowEdgeStyle;fontSize=12;html=1;endArrow=blockThin;endFill=1;rounded=0;" edge="1" parent="AoB9L2WosPhS8uKm3T97-2">
          <mxGeometry width="160" relative="1" as="geometry">
            <mxPoint x="1120" y="52.44" as="sourcePoint" />
            <mxPoint x="1160" y="52" as="targetPoint" />
          </mxGeometry>
        </mxCell>
        <mxCell id="AoB9L2WosPhS8uKm3T97-94" value="" style="points=[[0.145,0.145,0],[0.5,0,0],[0.855,0.145,0],[1,0.5,0],[0.855,0.855,0],[0.5,1,0],[0.145,0.855,0],[0,0.5,0]];shape=mxgraph.bpmn.event;html=1;verticalLabelPosition=bottom;labelBackgroundColor=#ffffff;verticalAlign=top;align=center;perimeter=ellipsePerimeter;outlineConnect=0;aspect=fixed;outline=end;symbol=terminate;fontSize=12;" vertex="1" parent="AoB9L2WosPhS8uKm3T97-2">
          <mxGeometry x="1160" y="37.5" width="30" height="30" as="geometry" />
        </mxCell>
        <mxCell id="AoB9L2WosPhS8uKm3T97-95" value="&lt;font style=&quot;font-size: 10px;&quot;&gt;Kraj&lt;/font&gt;" style="text;html=1;strokeColor=none;fillColor=none;align=center;verticalAlign=middle;whiteSpace=wrap;rounded=0;fontSize=12;" vertex="1" parent="AoB9L2WosPhS8uKm3T97-2">
          <mxGeometry x="1180" y="42.5" width="50" height="20" as="geometry" />
        </mxCell>
        <mxCell id="AoB9L2WosPhS8uKm3T97-96" value="Otkazati rezervaciju" style="text;html=1;strokeColor=none;fillColor=none;align=center;verticalAlign=middle;whiteSpace=wrap;rounded=0;fontSize=12;" vertex="1" parent="AoB9L2WosPhS8uKm3T97-2">
          <mxGeometry x="990" y="105" width="80" height="10" as="geometry" />
        </mxCell>
        <mxCell id="AoB9L2WosPhS8uKm3T97-97" value="Ne" style="text;html=1;strokeColor=none;fillColor=none;align=center;verticalAlign=middle;whiteSpace=wrap;rounded=0;fontSize=11;" vertex="1" parent="AoB9L2WosPhS8uKm3T97-2">
          <mxGeometry x="970" y="72.5" width="40" height="10" as="geometry" />
        </mxCell>
        <mxCell id="AoB9L2WosPhS8uKm3T97-98" value="Da" style="text;html=1;strokeColor=none;fillColor=none;align=center;verticalAlign=middle;whiteSpace=wrap;rounded=0;fontSize=11;" vertex="1" parent="AoB9L2WosPhS8uKm3T97-2">
          <mxGeometry x="975" y="140" width="30" height="10" as="geometry" />
        </mxCell>
        <mxCell id="AoB9L2WosPhS8uKm3T97-103" value="" style="dashed=1;dashPattern=8 4;endArrow=block;endFill=0;startArrow=oval;startFill=0;endSize=6;startSize=4;html=1;rounded=0;fontSize=12;" edge="1" parent="AoB9L2WosPhS8uKm3T97-2">
          <mxGeometry width="160" relative="1" as="geometry">
            <mxPoint x="1080" y="190" as="sourcePoint" />
            <mxPoint x="1080" y="270" as="targetPoint" />
          </mxGeometry>
        </mxCell>
        <mxCell id="AoB9L2WosPhS8uKm3T97-106" value="" style="points=[[0.145,0.145,0],[0.5,0,0],[0.855,0.145,0],[1,0.5,0],[0.855,0.855,0],[0.5,1,0],[0.145,0.855,0],[0,0.5,0]];shape=mxgraph.bpmn.event;html=1;verticalLabelPosition=bottom;labelBackgroundColor=#ffffff;verticalAlign=top;align=center;perimeter=ellipsePerimeter;outlineConnect=0;aspect=fixed;outline=catching;symbol=message;fontSize=12;" vertex="1" parent="AoB9L2WosPhS8uKm3T97-2">
          <mxGeometry x="1220" y="80" width="30" height="30" as="geometry" />
        </mxCell>
        <mxCell id="AoB9L2WosPhS8uKm3T97-107" value="" style="points=[[0.145,0.145,0],[0.5,0,0],[0.855,0.145,0],[1,0.5,0],[0.855,0.855,0],[0.5,1,0],[0.145,0.855,0],[0,0.5,0]];shape=mxgraph.bpmn.event;html=1;verticalLabelPosition=bottom;labelBackgroundColor=#ffffff;verticalAlign=top;align=center;perimeter=ellipsePerimeter;outlineConnect=0;aspect=fixed;outline=end;symbol=terminate;fontSize=12;" vertex="1" parent="AoB9L2WosPhS8uKm3T97-2">
          <mxGeometry x="1270" y="80" width="30" height="30" as="geometry" />
        </mxCell>
        <mxCell id="AoB9L2WosPhS8uKm3T97-109" value="" style="edgeStyle=elbowEdgeStyle;fontSize=12;html=1;endArrow=blockThin;endFill=1;rounded=0;" edge="1" parent="AoB9L2WosPhS8uKm3T97-2">
          <mxGeometry width="160" relative="1" as="geometry">
            <mxPoint x="1250" y="93.94999999999999" as="sourcePoint" />
            <mxPoint x="1270" y="94" as="targetPoint" />
          </mxGeometry>
        </mxCell>
        <mxCell id="AoB9L2WosPhS8uKm3T97-110" value="" style="edgeStyle=elbowEdgeStyle;fontSize=12;html=1;endArrow=blockThin;endFill=1;rounded=0;" edge="1" parent="AoB9L2WosPhS8uKm3T97-2">
          <mxGeometry width="160" relative="1" as="geometry">
            <mxPoint x="1234.47" y="274.47" as="sourcePoint" />
            <mxPoint x="1234.47" y="110" as="targetPoint" />
          </mxGeometry>
        </mxCell>
        <mxCell id="AoB9L2WosPhS8uKm3T97-111" value="Kraj" style="text;html=1;strokeColor=none;fillColor=none;align=center;verticalAlign=middle;whiteSpace=wrap;rounded=0;fontSize=10;" vertex="1" parent="AoB9L2WosPhS8uKm3T97-2">
          <mxGeometry x="1280" y="110" width="50" height="15" as="geometry" />
        </mxCell>
        <mxCell id="AoB9L2WosPhS8uKm3T97-112" value="&lt;font style=&quot;font-size: 10px;&quot;&gt;Poruka o povratu novca&lt;/font&gt;" style="text;html=1;strokeColor=none;fillColor=none;align=center;verticalAlign=middle;whiteSpace=wrap;rounded=0;fontSize=12;" vertex="1" parent="AoB9L2WosPhS8uKm3T97-2">
          <mxGeometry x="1150" y="105" width="80" height="30" as="geometry" />
        </mxCell>
        <mxCell id="AoB9L2WosPhS8uKm3T97-3" value="&lt;span style=&quot;font-weight: normal;&quot;&gt;Sistem&lt;/span&gt;" style="swimlane;html=1;startSize=20;horizontal=0;" vertex="1" parent="AoB9L2WosPhS8uKm3T97-1">
          <mxGeometry x="20" y="230" width="1320" height="190" as="geometry" />
        </mxCell>
        <mxCell id="AoB9L2WosPhS8uKm3T97-51" value="Provera detalja" style="points=[[0.25,0,0],[0.5,0,0],[0.75,0,0],[1,0.25,0],[1,0.5,0],[1,0.75,0],[0.75,1,0],[0.5,1,0],[0.25,1,0],[0,0.75,0],[0,0.5,0],[0,0.25,0]];shape=mxgraph.bpmn.task;whiteSpace=wrap;rectStyle=rounded;size=10;html=1;taskMarker=abstract;fontSize=12;" vertex="1" parent="AoB9L2WosPhS8uKm3T97-3">
          <mxGeometry x="360" y="130" width="110" height="30" as="geometry" />
        </mxCell>
        <mxCell id="AoB9L2WosPhS8uKm3T97-57" value="" style="edgeStyle=elbowEdgeStyle;fontSize=12;html=1;endArrow=blockThin;endFill=1;rounded=0;" edge="1" parent="AoB9L2WosPhS8uKm3T97-3">
          <mxGeometry width="160" relative="1" as="geometry">
            <mxPoint x="470" y="140" as="sourcePoint" />
            <mxPoint x="490" y="90" as="targetPoint" />
            <Array as="points">
              <mxPoint x="490" y="140" />
            </Array>
          </mxGeometry>
        </mxCell>
        <mxCell id="AoB9L2WosPhS8uKm3T97-58" value="" style="points=[[0.25,0.25,0],[0.5,0,0],[0.75,0.25,0],[1,0.5,0],[0.75,0.75,0],[0.5,1,0],[0.25,0.75,0],[0,0.5,0]];shape=mxgraph.bpmn.gateway2;html=1;verticalLabelPosition=bottom;labelBackgroundColor=#ffffff;verticalAlign=top;align=center;perimeter=rhombusPerimeter;outlineConnect=0;outline=none;symbol=none;gwType=exclusive;fontSize=12;" vertex="1" parent="AoB9L2WosPhS8uKm3T97-3">
          <mxGeometry x="470" y="50" width="40" height="40" as="geometry" />
        </mxCell>
        <mxCell id="AoB9L2WosPhS8uKm3T97-59" value="" style="edgeStyle=elbowEdgeStyle;fontSize=12;html=1;endArrow=blockThin;endFill=1;rounded=0;" edge="1" parent="AoB9L2WosPhS8uKm3T97-3" target="AoB9L2WosPhS8uKm3T97-21">
          <mxGeometry width="160" relative="1" as="geometry">
            <mxPoint x="470" y="70" as="sourcePoint" />
            <mxPoint x="450" y="-95" as="targetPoint" />
            <Array as="points">
              <mxPoint x="450" y="-10" />
            </Array>
          </mxGeometry>
        </mxCell>
        <mxCell id="AoB9L2WosPhS8uKm3T97-60" value="" style="edgeStyle=elbowEdgeStyle;fontSize=12;html=1;endArrow=blockThin;endFill=1;rounded=0;" edge="1" parent="AoB9L2WosPhS8uKm3T97-3" target="AoB9L2WosPhS8uKm3T97-22">
          <mxGeometry width="160" relative="1" as="geometry">
            <mxPoint x="489.5" as="sourcePoint" />
            <mxPoint x="489.5" y="-90" as="targetPoint" />
            <Array as="points">
              <mxPoint x="489.5" y="50" />
            </Array>
          </mxGeometry>
        </mxCell>
        <mxCell id="AoB9L2WosPhS8uKm3T97-66" value="Provera detalja" style="points=[[0.25,0,0],[0.5,0,0],[0.75,0,0],[1,0.25,0],[1,0.5,0],[1,0.75,0],[0.75,1,0],[0.5,1,0],[0.25,1,0],[0,0.75,0],[0,0.5,0],[0,0.25,0]];shape=mxgraph.bpmn.task;whiteSpace=wrap;rectStyle=rounded;size=10;html=1;taskMarker=abstract;fontSize=12;" vertex="1" parent="AoB9L2WosPhS8uKm3T97-3">
          <mxGeometry x="790" y="110" width="90" height="30" as="geometry" />
        </mxCell>
        <mxCell id="AoB9L2WosPhS8uKm3T97-76" value="" style="edgeStyle=elbowEdgeStyle;fontSize=12;html=1;endArrow=blockThin;endFill=1;rounded=0;" edge="1" parent="AoB9L2WosPhS8uKm3T97-3">
          <mxGeometry width="160" relative="1" as="geometry">
            <mxPoint x="880" y="124.47000000000003" as="sourcePoint" />
            <mxPoint x="910" y="80" as="targetPoint" />
            <Array as="points">
              <mxPoint x="910" y="124" />
            </Array>
          </mxGeometry>
        </mxCell>
        <mxCell id="AoB9L2WosPhS8uKm3T97-77" value="" style="points=[[0.25,0.25,0],[0.5,0,0],[0.75,0.25,0],[1,0.5,0],[0.75,0.75,0],[0.5,1,0],[0.25,0.75,0],[0,0.5,0]];shape=mxgraph.bpmn.gateway2;html=1;verticalLabelPosition=bottom;labelBackgroundColor=#ffffff;verticalAlign=top;align=center;perimeter=rhombusPerimeter;outlineConnect=0;outline=none;symbol=none;gwType=exclusive;fontSize=10;" vertex="1" parent="AoB9L2WosPhS8uKm3T97-3">
          <mxGeometry x="890" y="40" width="40" height="40" as="geometry" />
        </mxCell>
        <mxCell id="AoB9L2WosPhS8uKm3T97-78" value="Dostupno" style="text;html=1;strokeColor=none;fillColor=none;align=center;verticalAlign=middle;whiteSpace=wrap;rounded=0;fontSize=10;" vertex="1" parent="AoB9L2WosPhS8uKm3T97-3">
          <mxGeometry x="500" y="80" width="60" height="10" as="geometry" />
        </mxCell>
        <mxCell id="AoB9L2WosPhS8uKm3T97-79" value="Dostupnost novca" style="text;html=1;strokeColor=none;fillColor=none;align=center;verticalAlign=middle;whiteSpace=wrap;rounded=0;fontSize=10;" vertex="1" parent="AoB9L2WosPhS8uKm3T97-3">
          <mxGeometry x="920" y="75" width="70" height="20" as="geometry" />
        </mxCell>
        <mxCell id="AoB9L2WosPhS8uKm3T97-83" value="Da" style="text;html=1;strokeColor=none;fillColor=none;align=center;verticalAlign=middle;whiteSpace=wrap;rounded=0;fontSize=10;" vertex="1" parent="AoB9L2WosPhS8uKm3T97-3">
          <mxGeometry x="880" width="80" height="30" as="geometry" />
        </mxCell>
        <mxCell id="AoB9L2WosPhS8uKm3T97-84" value="" style="edgeStyle=elbowEdgeStyle;fontSize=12;html=1;endArrow=blockThin;endFill=1;rounded=0;" edge="1" parent="AoB9L2WosPhS8uKm3T97-3">
          <mxGeometry width="160" relative="1" as="geometry">
            <mxPoint x="890" y="60" as="sourcePoint" />
            <mxPoint x="870" y="-105" as="targetPoint" />
            <Array as="points">
              <mxPoint x="870" y="60" />
            </Array>
          </mxGeometry>
        </mxCell>
        <mxCell id="AoB9L2WosPhS8uKm3T97-99" value="&lt;font style=&quot;font-size: 12px;&quot;&gt;Primanje poruke&lt;/font&gt;" style="points=[[0.25,0,0],[0.5,0,0],[0.75,0,0],[1,0.25,0],[1,0.5,0],[1,0.75,0],[0.75,1,0],[0.5,1,0],[0.25,1,0],[0,0.75,0],[0,0.5,0],[0,0.25,0]];shape=mxgraph.bpmn.task;whiteSpace=wrap;rectStyle=rounded;size=10;html=1;taskMarker=abstract;fontSize=11;" vertex="1" parent="AoB9L2WosPhS8uKm3T97-3">
          <mxGeometry x="1050" y="40" width="90" height="40" as="geometry" />
        </mxCell>
        <mxCell id="AoB9L2WosPhS8uKm3T97-104" value="Vraćanje novca" style="points=[[0.25,0,0],[0.5,0,0],[0.75,0,0],[1,0.25,0],[1,0.5,0],[1,0.75,0],[0.75,1,0],[0.5,1,0],[0.25,1,0],[0,0.75,0],[0,0.5,0],[0,0.25,0]];shape=mxgraph.bpmn.task;whiteSpace=wrap;rectStyle=rounded;size=10;html=1;taskMarker=abstract;fontSize=12;" vertex="1" parent="AoB9L2WosPhS8uKm3T97-3">
          <mxGeometry x="1180" y="45" width="100" height="30" as="geometry" />
        </mxCell>
        <mxCell id="AoB9L2WosPhS8uKm3T97-105" value="" style="edgeStyle=elbowEdgeStyle;fontSize=12;html=1;endArrow=blockThin;endFill=1;rounded=0;" edge="1" parent="AoB9L2WosPhS8uKm3T97-3">
          <mxGeometry width="160" relative="1" as="geometry">
            <mxPoint x="1140" y="59.47000000000003" as="sourcePoint" />
            <mxPoint x="1180" y="59" as="targetPoint" />
          </mxGeometry>
        </mxCell>
        <mxCell id="AoB9L2WosPhS8uKm3T97-70" value="" style="edgeStyle=elbowEdgeStyle;fontSize=12;html=1;endArrow=blockThin;endFill=1;rounded=0;exitX=0.75;exitY=1;exitDx=0;exitDy=0;exitPerimeter=0;entryX=0.25;entryY=0;entryDx=0;entryDy=0;entryPerimeter=0;" edge="1" parent="AoB9L2WosPhS8uKm3T97-1" source="AoB9L2WosPhS8uKm3T97-28" target="AoB9L2WosPhS8uKm3T97-66">
          <mxGeometry width="160" relative="1" as="geometry">
            <mxPoint x="830" y="190" as="sourcePoint" />
            <mxPoint x="833" y="310" as="targetPoint" />
          </mxGeometry>
        </mxCell>
        <mxCell id="AoB9L2WosPhS8uKm3T97-49" value="" style="edgeStyle=elbowEdgeStyle;fontSize=12;html=1;endArrow=blockThin;endFill=1;rounded=0;" edge="1" parent="1">
          <mxGeometry width="160" relative="1" as="geometry">
            <mxPoint x="830" y="230" as="sourcePoint" />
            <mxPoint x="830" y="230" as="targetPoint" />
          </mxGeometry>
        </mxCell>
      </root>
    </mxGraphModel>
  </diagram>
</mxfile>
